HIERARCHY
ROOT Hips
{
	OFFSET 0.00000 0.00000 0.00000
	CHANNELS 6 Xposition Yposition Zposition Zrotation Yrotation Xrotation 
	JOINT LHipJoint
	{
		OFFSET 0 0 0
		CHANNELS 3 Zrotation Yrotation Xrotation
		JOINT LeftUpLeg
		{
			OFFSET 1.56857 -1.73443 1.15205
			CHANNELS 3 Zrotation Yrotation Xrotation
			JOINT LeftLeg
			{
				OFFSET 2.39362 -6.57643 0.00000
				CHANNELS 3 Zrotation Yrotation Xrotation
				JOINT LeftFoot
				{
					OFFSET 2.50952 -6.89485 0.00000
					CHANNELS 3 Zrotation Yrotation Xrotation
					JOINT LeftToeBase
					{
						OFFSET 0.17171 -0.47178 1.88682
						CHANNELS 3 Zrotation Yrotation Xrotation
						End Site
						{
							OFFSET 0.00000 -0.00000 0.98146
						}
					}
				}
			}
		}
	}
	JOINT RHipJoint
	{
		OFFSET 0 0 0
		CHANNELS 3 Zrotation Yrotation Xrotation
		JOINT RightUpLeg
		{
			OFFSET -1.28153 -1.73443 1.15205
			CHANNELS 3 Zrotation Yrotation Xrotation
			JOINT RightLeg
			{
				OFFSET -2.26861 -6.23296 0.00000
				CHANNELS 3 Zrotation Yrotation Xrotation
				JOINT RightFoot
				{
					OFFSET -2.54143 -6.98254 0.00000
					CHANNELS 3 Zrotation Yrotation Xrotation
					JOINT RightToeBase
					{
						OFFSET -0.23309 -0.64041 1.93119
						CHANNELS 3 Zrotation Yrotation Xrotation
						End Site
						{
							OFFSET -0.00000 -0.00000 1.02013
						}
					}
				}
			}
		}
	}
	JOINT LowerBack
	{
		OFFSET 0 0 0
		CHANNELS 3 Zrotation Yrotation Xrotation
		JOINT Spine
		{
			OFFSET -0.07096 2.10460 -0.27878
			CHANNELS 3 Zrotation Yrotation Xrotation
			JOINT Spine1
			{
				OFFSET -0.00826 2.13662 -0.08279
				CHANNELS 3 Zrotation Yrotation Xrotation
				JOINT Neck
				{
					OFFSET 0 0 0
					CHANNELS 3 Zrotation Yrotation Xrotation
					JOINT Neck1
					{
						OFFSET 0.03239 1.77799 0.24435
						CHANNELS 3 Zrotation Yrotation Xrotation
						JOINT Head
						{
							OFFSET 0.01026 1.74194 -0.49664
							CHANNELS 3 Zrotation Yrotation Xrotation
							End Site
							{
								OFFSET 0.00170 1.83057 -0.19653
							}
						}
					}
				}
				JOINT LeftShoulder
				{
					OFFSET 0 0 0
					CHANNELS 3 Zrotation Yrotation Xrotation
					JOINT LeftArm
					{
						OFFSET 3.19178 1.35907 -0.31412
						CHANNELS 3 Zrotation Yrotation Xrotation
						JOINT LeftForeArm
						{
							OFFSET 4.85247 -0.00000 -0.00000
							CHANNELS 3 Zrotation Yrotation Xrotation
							JOINT LeftHand
							{
								OFFSET 3.55584 -0.00000 0.00000
								CHANNELS 3 Zrotation Yrotation Xrotation
								JOINT LeftFingerBase
								{
									OFFSET 0 0 0
									CHANNELS 3 Zrotation Yrotation Xrotation
									JOINT LeftHandIndex1
									{
										OFFSET 0.69320 -0.00000 0.00000
										CHANNELS 3 Zrotation Yrotation Xrotation
										End Site
										{
											OFFSET 0.55888 -0.00000 0.00000
										}
									}
								}
								JOINT LThumb
								{
									OFFSET 0 0 0
									CHANNELS 3 Zrotation Yrotation Xrotation
									End Site
									{
										OFFSET 0.56741 -0.00000 0.56741
									}
								}
							}
						}
					}
				}
				JOINT RightShoulder
				{
					OFFSET 0 0 0
					CHANNELS 3 Zrotation Yrotation Xrotation
					JOINT RightArm
					{
						OFFSET -3.28999 1.24191 -0.26899
						CHANNELS 3 Zrotation Yrotation Xrotation
						JOINT RightForeArm
						{
							OFFSET -4.64462 -0.00000 0.00000
							CHANNELS 3 Zrotation Yrotation Xrotation
							JOINT RightHand
							{
								OFFSET -3.40703 -0.00000 0.00000
								CHANNELS 3 Zrotation Yrotation Xrotation
								JOINT RightFingerBase
								{
									OFFSET 0 0 0
									CHANNELS 3 Zrotation Yrotation Xrotation
									JOINT RightHandIndex1
									{
										OFFSET -0.61958 -0.00000 0.00000
										CHANNELS 3 Zrotation Yrotation Xrotation
										End Site
										{
											OFFSET -0.49952 -0.00000 0.00000
										}
									}
								}
								JOINT RThumb
								{
									OFFSET 0 0 0
									CHANNELS 3 Zrotation Yrotation Xrotation
									End Site
									{
										OFFSET -0.50715 -0.00000 0.50715
									}
								}
							}
						}
					}
				}
			}
		}
	}
}
MOTION
Frames: 8
Frame Time: .0083333
-28.0267 17.1569 0.6328 0 0 0 0 0 0 -21 0 0 0 0 0 0 0 0 0 0 0 0 0 0 21 0 0 0 0 0 0 0 0 0 0 0 0 0 0 0 0 0 0 0 0 0 0 -16 0 0 21 0 0 11 0 0 0 -8 0 0 0 0 0 0 0 0 0 0 0 0 0 0 0 0 0 0 0 0 8 0 0 0 0 0 0 0 0 0 0 0 0 0 0 0 0 0
-28.0267 17.1569 0.6328 18.1421 82.5606 19.0027 0.0000 0.0000 0.0000 -12.1933 5.8894 10.7832 0.0000 -0.0320 -0.0878 0.3612 9.2201 -18.2156 0.3408 -3.7513 -10.3781 0.0000 0.0000 0.0000 8.6958 -5.8772 9.0928 -0.0250 -1.0217 2.8086 -0.9431 -1.0473 -18.7555 -0.0105 -0.6632 1.8224 -5.4154 1.9345 4.6337 -0.2391 2.3403 1.2418 2.6469 1.1924 -1.5222 4.3331 4.0947 -20.4422 -2.5181 5.3927 25.6389 -0.7702 2.6087 12.0181 0.0000 0.0000 0.0000 -85.4390 1.5582 45.6401 15.8863 -25.3663 -3.5971 -0.0000 -0.0000 13.0297 10.4504 -25.6654 -4.5674 -7.1250 0.0000 -0.0000 -11.6564 4.3926 10.9632 0.0000 0.0000 0.0000 85.0712 -4.5011 30.4701 -17.7065 27.7797 -4.4116 0.0000 0.0000 4.5256 -10.6095 -31.3804 5.5710 7.1250 -0.0000 -0.0000 24.3728 -60.1160 -9.3170
-28.0271 17.1566 0.6381 18.2939 82.5248 19.1222 0.0000 0.0000 0.0000 -12.1114 6.1339 10.7788 0.0001 -0.0562 -0.1545 0.3321 9.2495 -17.9042 0.4073 -4.0971 -11.3499 0.0000 0.0000 0.0000 8.7010 -5.7248 9.1430 -0.0269 -1.0595 2.9126 -0.9781 -0.8466 -19.0128 -0.0236 -0.9913 2.7249 -5.5408 1.9408 4.7114 -0.1986 2.3389 1.2512 2.7565 1.1930 -1.5622 4.2424 4.0856 -20.4624 -2.4881 5.3962 25.5884 -0.7434 2.6043 11.9984 -0.0000 0.0000 0.0000 -85.2533 1.6410 46.0337 16.0929 -25.6464 -3.6861 -0.0000 -0.0000 12.7916 9.7871 -25.5996 -4.2625 -7.1250 0.0000 -0.0000 -12.0534 4.5335 11.3215 -0.0000 0.0000 0.0000 85.1101 -4.5998 30.4931 -17.8241 27.9314 -4.4666 0.0000 0.0000 4.3890 -10.6408 -31.3184 5.5778 7.1250 -0.0000 -0.0000 24.2879 -60.0675 -9.2540
-28.0281 17.1543 0.6428 18.1738 82.4879 19.0446 0.0000 0.0000 0.0000 -12.0041 6.3490 10.7075 0.0002 -0.0816 -0.2243 0.3155 9.2451 -17.7005 0.5083 -4.5700 -12.6861 0.0000 0.0000 0.0000 8.7680 -5.5460 9.1185 -0.0291 -1.1019 3.0292 -1.0090 -0.8084 -19.2916 -0.0220 -0.9584 2.6342 -5.5661 1.9363 4.7454 -0.1922 2.3279 1.2160 2.7761 1.1895 -1.6179 4.1996 4.0549 -20.4939 -2.5463 5.3964 25.7581 -0.7563 2.5938 12.0715 -0.0000 -0.0000 0.0000 -85.0315 1.7611 46.1943 16.3310 -25.9674 -3.7897 -0.0000 -0.0000 12.6888 9.1335 -25.6426 -3.9800 -7.1250 0.0000 -0.0000 -12.4478 4.5641 11.7030 -0.0000 -0.0000 0.0000 85.1659 -4.7673 30.6107 -17.9735 28.1232 -4.5367 0.0000 0.0000 4.1344 -10.5930 -30.9734 5.4976 7.1250 -0.0000 -0.0000 24.0488 -59.7451 -8.9697
-28.0262 17.1519 0.6477 17.8324 82.4006 18.7958 0.0000 0.0000 0.0000 -11.9061 6.4835 10.6457 0.0003 -0.1140 -0.3131 0.3499 8.9895 -17.8436 0.4620 -4.3601 -12.0922 0.0000 0.0000 0.0000 8.7934 -5.5308 8.9005 -0.0338 -1.1864 3.2617 -1.0315 -0.6524 -19.4422 -0.0110 -0.6768 1.8599 -5.5194 1.9526 4.6782 -0.2457 2.3543 1.1894 2.6947 1.2026 -1.6061 4.1934 4.0391 -20.5150 -2.4369 5.3414 25.7648 -0.7231 2.5826 12.0723 -0.0000 -0.0000 0.0000 -84.7060 1.8319 46.2770 16.5734 -26.2919 -3.8965 -0.0000 -0.0000 12.5949 9.1268 -25.8390 -4.0053 -7.1250 0.0000 -0.0000 -12.4576 4.3723 11.7585 -0.0000 -0.0000 0.0000 85.3294 -5.0562 30.7009 -18.2371 28.4597 -4.6617 0.0000 0.0000 3.8718 -10.5935 -31.0208 5.5054 7.1250 -0.0000 -0.0000 24.0876 -59.7881 -9.0101
-28.0236 17.1483 0.6530 18.3842 82.3161 19.4274 0.0000 0.0000 0.0000 -11.9690 6.5163 10.6036 0.0004 -0.1340 -0.3681 0.3881 8.7375 -18.0379 0.3526 -3.8149 -10.5564 0.0000 0.0000 0.0000 8.6068 -5.7402 8.5574 -0.0401 -1.2921 3.5529 -1.0418 -0.3255 -19.4164 -0.0012 -0.2201 0.6047 -5.5965 1.9720 4.6047 -0.3348 2.3814 1.2057 2.6469 1.2149 -1.5498 4.2175 4.0200 -20.6711 -2.3490 5.2676 25.7645 -0.7041 2.5602 12.0984 0.0000 -0.0000 0.0000 -84.3618 1.7714 46.4456 16.7752 -26.5605 -3.9863 -0.0000 -0.0000 12.3902 10.8502 -26.1912 -4.8355 -7.1250 0.0000 -0.0000 -11.4373 3.8265 10.8713 0.0000 -0.0000 0.0000 85.5275 -5.3038 30.7832 -18.5334 28.8348 -4.8037 0.0000 0.0000 3.5451 -10.5764 -31.4120 5.5583 7.1250 -0.0000 -0.0000 24.4338 -60.1367 -9.3542
-28.0216 17.1433 0.6573 19.1495 82.2961 20.2337 0.0000 0.0000 0.0000 -12.0969 6.4253 10.6141 0.0005 -0.1405 -0.3861 0.3839 8.8403 -18.0919 0.3973 -4.0470 -11.2089 0.0000 0.0000 0.0000 8.4280 -5.8927 8.2779 -0.0471 -1.4009 3.8527 -1.0482 -0.1092 -19.3985 -0.0004 0.1318 -0.3621 -5.6891 1.9638 4.6286 -0.3957 2.3649 1.2179 2.6363 1.2070 -1.5501 4.0561 3.9921 -20.8620 -2.1084 5.2010 25.8181 -0.5946 2.5430 12.1419 0.0000 0.0000 0.0000 -84.0923 1.6511 46.6025 16.9061 -26.7339 -4.0450 -0.0000 -0.0000 12.2911 10.0767 -26.6412 -4.5560 -7.1250 0.0000 -0.0000 -11.9182 3.4760 11.4278 0.0000 0.0000 0.0000 85.6946 -5.4405 30.8128 -18.7097 29.0564 -4.8891 0.0000 0.0000 3.2757 -10.5078 -31.3690 5.5149 7.1250 -0.0000 -0.0000 24.4682 -60.0819 -9.3361
-28.0201 17.1419 0.6622 20.1643 82.2280 21.2124 0.0000 0.0000 0.0000 -12.3281 6.2894 10.7290 0.0005 -0.1397 -0.3839 0.3795 9.0255 -18.2278 0.4982 -4.5252 -12.5592 0.0000 0.0000 0.0000 8.2089 -5.9702 8.0529 -0.0571 -1.5422 4.2421 -1.0657 0.1459 -19.4727 -0.0004 0.1271 -0.3492 -5.8684 1.9532 4.7519 -0.4549 2.3347 1.2333 2.6735 1.1942 -1.6048 3.9566 4.0029 -20.9947 -1.9255 5.1892 25.8585 -0.5088 2.5499 12.1747 -0.0000 -0.0000 0.0000 -83.8100 1.5790 46.6183 17.0855 -26.9704 -4.1261 -0.0000 -0.0000 12.4954 10.0081 -26.7005 -4.5337 -7.1250 0.0000 -0.0000 -11.9614 3.4258 11.4824 -0.0000 -0.0000 0.0000 85.8411 -5.5363 30.9093 -18.8495 29.2313 -4.9572 0.0000 0.0000 3.0109 -10.5369 -31.3098 5.5211 7.1250 -0.0000 -0.0000 24.3880 -60.0355 -9.2761
